PathFileType	4	(X/Y/Z)	21_coords_data.trc
DataRate	CameraRate	NumFrames	NumMarkers	Units	OrigDataRate	OrigDataStartFrame	OrigNumFrames
30.0	30.0	7	21	m	30.0	11	60
Frame#	Time	THUMB_TIP	THUMB_IP	THUMB_MCP	THUMB_CMC	INDEX_TIP	INDEX_DIP	INDEX_PIP	INDEX_MCP	MIDDLE_TIP	MIDDLE_DIP	MIDDLE_PIP	MIDDLE_MCP	RING_TIP	RING_DIP	RING_PIP	RING_MCP	PINKY_TIP	PINKY_DIP	PINKY_PIP	PINKY_MCP	WRIST
X1	Y1	Z1	X2	Y2	Z2	X3	Y3	Z3	X4	Y4	Z4	X5	Y5	Z5	X6	Y6	Z6	X7	Y7	Z7	X8	Y8	Z8	X9	Y9	Z9	X10	Y10	Z10	X11	Y11	Z11	X12	Y12	Z12	X13	Y13	Z13	X14	Y14	Z14	X15	Y15	Z15	X16	Y16	Z16	X17	Y17	Z17	X18	Y18	Z18	X19	Y19	Z19	X20	Y20	Z20	X21	Y21	Z21
10	0.3333333333333333	-0.04806480026245117	-0.034086700439453124	0.9086939697265625	-0.04675690078735351	-0.011609100341796874	0.9283179931640625	-0.04784669876098633	0.009582650184631348	0.9522529907226562	-0.0528400993347168	0.04010649871826172	0.9743980102539063	-0.0388755989074707	0.041027698516845706	0.9453060302734375	-0.020862199783325194	0.043348499298095707	0.9380040283203125	-0.013751500129699707	0.0409817008972168	0.91472998046875	-0.05695429992675781	0.03674039840698242	0.9142579956054687	-0.03080509948730469	0.05624739837646484	0.9473309936523437	-0.024471900939941407	0.05970339965820313	0.9432899780273437	-0.014371700286865234	0.061449199676513674	0.9176060180664063	-0.05989709854125977	0.060442298889160154	0.9130910034179688	-0.03953620147705078	0.06999610137939453	0.9530560302734375	-0.025875999450683595	0.0747667007446289	0.9436160278320312	-0.01724300003051758	0.07953659820556641	0.91952197265625	-0.05984209823608398	0.08149990081787109	0.919635009765625	-0.03498300170898438	0.08638600158691406	0.9486179809570312	-0.02091349983215332	0.08998210144042969	0.9398909912109376	-0.02202039909362793	0.09599680328369141	0.9240789794921875	-0.054684200286865235	0.09755570220947266	0.9293900146484375	-0.08139440155029297	0.06117800140380859	0.9982429809570312
11	0.36666666666666664	-0.048297000885009767	-0.0341973991394043	0.90868701171875	-0.04688650131225586	-0.01169219970703125	0.9283820190429688	-0.04791049957275391	0.009541080474853516	0.9522949829101562	-0.052790401458740234	0.0400635986328125	0.9744019775390625	-0.03875709915161133	0.04088460159301758	0.9454879760742188	-0.02089389991760254	0.04334510040283203	0.938093994140625	-0.013819100379943848	0.04086190032958984	0.9147319946289062	-0.05687519836425781	0.036677200317382815	0.9143200073242187	-0.03113859939575195	0.05603910064697266	0.9477360229492188	-0.024408700942993165	0.05963150024414063	0.9433330078125	-0.014440400123596191	0.061335498809814454	0.9175989990234374	-0.06001839828491211	0.06037910079956055	0.9131480102539062	-0.039526199340820314	0.07000530242919922	0.9531489868164063	-0.02583340072631836	0.07470670318603516	0.9437139892578125	-0.017332099914550782	0.07946170043945312	0.9195980224609375	-0.05983169937133789	0.08143170166015624	0.9196259765625	-0.03499710083007813	0.08636380004882813	0.9488410034179687	-0.020879100799560547	0.0899529037475586	0.9397659912109375	-0.02195549964904785	0.09585260009765625	0.9240900268554687	-0.054598800659179686	0.09749790191650391	0.9294849853515625	-0.08144979858398438	0.06110979843139648	0.9982160034179688
12	0.4	-0.04817839813232422	-0.03412789916992188	0.9086790161132813	-0.04682749938964844	-0.01164579963684082	0.9284169921875	-0.04790719985961914	0.009523209571838378	0.9522789916992187	-0.05288990020751953	0.03999639892578125	0.974364990234375	-0.038526901245117186	0.041520999908447265	0.9461060180664063	-0.020931100845336913	0.04331529998779297	0.9383200073242187	-0.01382409954071045	0.04084930038452148	0.9147780151367187	-0.05711090087890625	0.036720600128173825	0.9143380126953125	-0.03128210067749024	0.056015701293945314	0.9477459716796875	-0.024638399124145508	0.05961090087890625	0.9433920288085937	-0.014470499992370605	0.06132630157470703	0.9176489868164063	-0.06010490036010742	0.06042959976196289	0.9132230224609375	-0.039594398498535154	0.07000160217285156	0.9532169799804687	-0.02590169906616211	0.07470059967041015	0.9437659912109375	-0.017381099700927733	0.07943389892578125	0.91964697265625	-0.05990719985961914	0.08142919921875	0.9196690063476562	-0.03498249816894531	0.08627050018310548	0.9487999877929687	-0.02082620048522949	0.08991449737548828	0.9399140014648437	-0.022022499084472656	0.09581060028076172	0.9241890258789063	-0.05469219970703125	0.09748709869384765	0.9295759887695313	-0.08139710235595703	0.06120640182495117	0.9980380249023437
13	0.43333333333333335	-0.04830429840087891	-0.034081600189208985	0.9086810302734375	-0.04686880111694336	-0.011530099868774414	0.9284669799804688	-0.04799589920043945	0.00964097023010254	0.9523679809570312	-0.05286920166015625	0.04014459991455078	0.9744520263671875	-0.03886330032348633	0.04108580017089844	0.9455800170898437	-0.021030000686645508	0.04336930084228516	0.9381829833984375	-0.013936800003051758	0.0408917007446289	0.9148460083007812	-0.057102798461914066	0.036779701232910154	0.9143779907226562	-0.031148899078369142	0.05610689926147461	0.94772802734375	-0.024588300704956056	0.05965060043334961	0.9433829956054688	-0.014532500267028809	0.06138869857788086	0.91777197265625	-0.060064098358154294	0.06043600082397461	0.913135009765625	-0.03945759963989258	0.07005699920654297	0.9532109985351562	-0.025947099685668946	0.07468699645996094	0.9436259765625	-0.01738290023803711	0.07944499969482421	0.9195059814453125	-0.05999359893798828	0.08147699737548827	0.9196849975585938	-0.0349182014465332	0.08642759704589843	0.9488660278320312	-0.020849700927734374	0.08988449859619141	0.93997900390625	-0.022111799240112303	0.09584439849853515	0.9241790161132812	-0.054811298370361326	0.09753589630126953	0.9296010131835938	-0.08143979644775391	0.06125310134887695	0.9982639770507813
14	0.4666666666666667	-0.04844699859619141	-0.034000701904296875	0.9086859741210938	-0.04705270004272461	-0.011485300064086913	0.9284580078125	-0.04810010147094727	0.00965983009338379	0.9523920288085937	-0.053077598571777344	0.04018529891967773	0.97456201171875	-0.03884870147705078	0.041272899627685544	0.945906982421875	-0.021159500122070313	0.04336640167236328	0.9380490112304688	-0.014104999542236329	0.04092219924926758	0.9147689819335938	-0.057257099151611326	0.036839000701904295	0.9143720092773437	-0.031125099182128906	0.05613309860229492	0.947551025390625	-0.02460110092163086	0.059655200958251955	0.943405029296875	-0.014735600471496583	0.06139770126342774	0.9177050170898438	-0.06025120162963867	0.060525501251220706	0.9132109985351563	-0.03968410110473633	0.07007119750976562	0.95327197265625	-0.02599370002746582	0.0746958999633789	0.943677978515625	-0.017507699966430663	0.07946659851074218	0.9195969848632812	-0.06007149887084961	0.08153309631347656	0.9196840209960937	-0.03496969985961914	0.08641889953613281	0.9490369873046876	-0.02086330032348633	0.08989839935302735	0.9400130004882813	-0.022175699234008788	0.09580909729003906	0.9242349853515625	-0.05473929977416992	0.09758719635009766	0.929510009765625	-0.08159919738769532	0.061323898315429684	0.9982919921875
15	0.5	-0.048255901336669925	-0.03400910186767578	0.9087550048828125	-0.04695000076293945	-0.01149839973449707	0.9284760131835937	-0.04809149932861328	0.009712860107421875	0.9524609985351562	-0.0530088005065918	0.04025659942626953	0.9746370239257812	-0.03896609878540039	0.041282299041748044	0.9459760131835937	-0.021105899810791015	0.043423599243164065	0.9381300048828125	-0.014085599899291992	0.04096250152587891	0.914885009765625	-0.05719340133666992	0.03683729934692383	0.9144739990234375	-0.031223499298095703	0.0562666015625	0.9477659912109375	-0.024667600631713867	0.059669700622558594	0.9434929809570313	-0.014712699890136719	0.06145529937744141	0.9178460083007812	-0.060323799133300784	0.06054669952392578	0.913280029296875	-0.0395260009765625	0.0701531982421875	0.9532039794921875	-0.026026500701904296	0.07475520324707031	0.9438690185546875	-0.017518100738525392	0.07950859832763672	0.9197000122070312	-0.060159000396728515	0.0816052017211914	0.9198250122070313	-0.03495399856567383	0.08648670196533204	0.9493289794921875	-0.020953399658203125	0.08989730072021485	0.9402860107421875	-0.02218670082092285	0.09582489776611328	0.9244240112304688	-0.05485409927368164	0.09761060333251953	0.92972998046875	-0.08164559936523437	0.061312000274658204	0.9983939819335937
16	0.5333333333333333	-0.04823059844970703	-0.03397829818725586	0.9088319702148437	-0.04689950180053711	-0.011473400115966797	0.9285540161132813	-0.04804240036010742	0.00974845027923584	0.9525750122070312	-0.053053699493408206	0.04023669815063476	0.9747130126953125	-0.03900749969482422	0.04109090042114258	0.9457570190429687	-0.021154600143432616	0.04332310104370117	0.9382429809570313	-0.013999699592590332	0.04097859954833984	0.91510498046875	-0.05727930068969726	0.03684450149536133	0.9144749755859375	-0.03106719970703125	0.05625719833374023	0.9475590209960938	-0.024697399139404295	0.05974470138549805	0.9437429809570312	-0.014632100105285645	0.06144459915161133	0.9179550170898437	-0.06014939880371094	0.060571998596191404	0.9133189697265625	-0.03969179916381836	0.07006749725341797	0.953551025390625	-0.025930700302124025	0.07473300170898438	0.94389697265625	-0.017419500350952147	0.07951370239257813	0.919843994140625	-0.05988750076293945	0.08158350372314453	0.9197429809570312	-0.03486470031738281	0.08631839752197265	0.94935302734375	-0.020882600784301757	0.08984829711914062	0.9404359741210937	-0.022063299179077147	0.09581099700927734	0.9245549926757812	-0.0548765983581543	0.09758619689941406	0.9298060302734374	-0.08162200164794922	0.06134140014648438	0.9984910278320313
